# xmcd
#
# Track frame offsets: 
#        150
#        13435
#        30490
#        43486
#        56043
#        73746
#        87274
#        101580
#        115023
#        154367
#        173163
#        187094
#        199370
#        211060
#        221282
#        230492
#        246710
#        257740
#        272102
#        282648
#
# Disc length: 3977 seconds
#
# Revision: 0
# Processed by: cddbd v1.5.2PL0 Copyright (c) Steve Scherf et al.
# Submitted via: ExactAudioCopy v0.99pb4
#
DISCID=3e0f8714
DTITLE=Various Artist - Jazz Soul Blues [CD8-Soul Classics 2)
DYEAR=2009
DGENRE=Soul
TTITLE0=Ben E King - Stand By Me
TTITLE1=Billy Paul - Bring The Family Back
TTITLE2=Ray Charles - I Got A Woman
TTITLE3=Bob and Earl - Harlem Shuffle
TTITLE4=Brook Benton - A Rainy Night In Georgia
TTITLE5=Ella Fitzgerald - My Man
TTITLE6=Billie Holiday - God Bless The Child
TTITLE7=Dinah Washington - Mad About The Boy
TTITLE8=The Montclairs - Do I Stand A Chance?
TTITLE9=Nina Simone - I Love You Porgy
TTITLE10=Dobie Gray - Loving Arms
TTITLE11=Eddie Floyo - Bring It On Home To Me
TTITLE12=The Impressions - Keep On Pushin'
TTITLE13=Gene Chandler - Duke Of Earl
TTITLE14=Gladys Knight and The Pips - Every Beat Of My Heart
TTITLE15=Harold Melvin and The Blue Notes - If You Don't Know Me By Now
TTITLE16=Fontella Bass - Hold On This Time
TTITLE17=Ralph Graham - Got To Find Somebody
TTITLE18=Sly and The Family Stone - Sevent Son (En Public)
TTITLE19=James Brown - I Got You (I Feel Good) (En Public)
EXTD=
EXTT0=
EXTT1=
EXTT2=
EXTT3=
EXTT4=
EXTT5=
EXTT6=
EXTT7=
EXTT8=
EXTT9=
EXTT10=
EXTT11=
EXTT12=
EXTT13=
EXTT14=
EXTT15=
EXTT16=
EXTT17=
EXTT18=
EXTT19=
PLAYORDER=
